<?xml version="1.0" standalone="no"?>
<!DOCTYPE svg PUBLIC "-//W3C//DTD SVG 20010904//EN"
 "http://www.w3.org/TR/2001/REC-SVG-20010904/DTD/svg10.dtd">
<svg version="1.0" xmlns="http://www.w3.org/2000/svg"
 width="351.000000pt" height="382.000000pt" viewBox="0 0 351.000000 382.000000"
 preserveAspectRatio="xMidYMid meet">

<g transform="translate(0.000000,382.000000) scale(0.100000,-0.100000)"
fill="#000000" stroke="none">
<path d="M2040 3785 c0 -8 -5 -15 -11 -15 -5 0 -7 5 -3 11 4 8 1 8 -12 1 -31
-17 -87 -80 -80 -90 7 -12 -21 -161 -43 -221 -22 -65 -130 -222 -199 -291 -18
-17 -30 -36 -27 -40 3 -5 0 -12 -8 -17 -28 -18 -58 -77 -59 -118 0 -11 -2 -14
-5 -7 -3 8 -9 10 -16 4 -7 -5 -70 -12 -142 -15 -108 -5 -163 -14 -325 -52
-107 -26 -205 -49 -217 -52 -20 -5 -22 -1 -25 53 -2 33 0 113 4 179 5 106 9
161 23 331 2 22 9 68 15 101 15 73 5 98 -41 107 -58 11 -79 6 -119 -30 -67
-61 -97 -195 -105 -469 -3 -93 -8 -207 -11 -253 -6 -79 -7 -82 -32 -88 -141
-33 -302 -82 -384 -115 -26 -10 -53 -19 -61 -19 -27 0 -121 -49 -123 -63 -1
-8 -5 -24 -9 -36 -5 -16 2 -32 26 -62 60 -76 114 -79 334 -18 39 11 79 24 90
29 11 5 43 13 70 19 28 5 57 12 66 16 14 5 16 -32 16 -387 0 -238 5 -434 12
-498 6 -58 16 -152 22 -209 l10 -104 -115 -111 c-63 -61 -119 -124 -125 -139
-6 -16 -15 -25 -21 -22 -5 3 -10 -1 -10 -9 0 -9 -4 -15 -9 -14 -24 7 -200
-190 -262 -291 -46 -76 -73 -176 -64 -236 4 -29 10 -43 17 -39 7 5 9 2 6 -7
-3 -8 -9 -22 -13 -31 -5 -14 -2 -18 14 -18 12 0 21 5 21 10 0 6 4 10 10 10 5
0 28 19 52 43 24 23 62 58 86 76 23 18 57 54 74 80 51 74 162 208 270 324 82
88 103 106 110 93 5 -9 7 -20 4 -25 -3 -4 -1 -35 4 -67 5 -32 14 -95 19 -139
6 -44 19 -141 30 -215 20 -137 29 -266 19 -275 -3 -3 -28 19 -56 50 -28 30
-55 55 -60 55 -5 0 -9 8 -8 18 0 10 -5 16 -13 14 -23 -5 -61 7 -61 19 0 8 6 7
16 -2 25 -20 36 8 18 44 -14 26 -17 27 -37 14 -19 -12 -24 -12 -35 -1 -10 12
-10 14 3 14 8 0 15 9 15 20 0 11 -7 20 -16 20 -8 0 -12 -4 -9 -10 3 -6 -1 -7
-10 -4 -9 4 -14 12 -11 20 6 15 -15 74 -26 74 -11 0 -10 -18 2 -25 5 -3 6 -13
3 -21 -4 -11 -8 -12 -13 -4 -3 6 -14 8 -24 4 -14 -5 -16 -14 -12 -40 5 -25 3
-35 -11 -42 -14 -9 -15 -13 -4 -26 12 -14 11 -16 -5 -16 -18 -1 -18 -1 -1 -14
11 -9 15 -20 11 -31 -5 -11 -1 -21 10 -27 11 -6 15 -16 11 -29 -5 -14 -2 -19
10 -19 11 0 15 -5 11 -15 -3 -8 0 -18 7 -22 7 -5 19 -24 29 -43 24 -51 41 -71
171 -202 107 -106 122 -118 154 -118 61 0 102 34 141 119 30 64 36 90 40 164
3 65 1 87 -8 87 -9 0 -10 3 -1 13 6 8 9 16 6 19 -3 2 -7 39 -10 81 -3 42 -15
136 -26 209 -11 73 -23 156 -25 183 -2 28 -7 57 -10 65 -3 8 -9 51 -14 95 -5
44 -13 116 -20 160 l-11 80 118 119 c73 72 113 120 105 123 -10 4 -10 8 -1 19
16 20 30 17 23 -3 -3 -10 17 5 45 34 l51 52 0 -87 c1 -145 26 -397 55 -537 20
-101 29 -137 37 -141 11 -7 10 -44 -2 -44 -13 0 -13 -40 0 -60 8 -12 10 -10
11 10 1 21 2 22 6 5 3 -11 10 -26 15 -33 8 -9 7 -11 -6 -6 -16 6 -17 2 -11
-42 14 -95 52 -186 104 -251 14 -18 37 -46 49 -63 31 -39 175 -142 277 -196
89 -48 235 -96 375 -124 66 -14 586 -23 640 -11 25 5 81 17 125 26 44 9 88 21
98 26 10 5 22 7 28 3 5 -3 16 0 24 6 8 7 34 13 57 15 65 4 205 40 225 57 10 8
31 18 47 22 46 11 86 58 86 102 0 31 -7 44 -45 81 -25 23 -45 47 -45 51 0 5
-9 17 -20 27 -11 10 -20 15 -20 11 0 -4 -13 7 -30 24 -28 29 -40 34 -68 31 -8
-1 -20 4 -29 11 -16 13 -47 32 -73 44 -8 4 -18 12 -22 18 -4 6 -10 7 -14 3 -4
-3 -1 -14 7 -24 12 -14 12 -16 0 -8 -11 6 -13 4 -8 -7 4 -12 1 -14 -16 -10
-12 3 -16 7 -10 9 7 3 10 10 7 18 -3 7 -1 16 5 20 16 10 13 23 -7 29 -21 7
-112 93 -112 107 0 5 -7 9 -15 9 -18 0 -20 -16 -2 -23 9 -4 9 -6 -1 -6 -7 -1
-27 12 -45 29 -18 16 -33 25 -35 20 -5 -14 -29 -12 -36 3 -3 6 -3 -6 0 -28 5
-38 4 -39 -11 -20 -15 19 -16 19 -12 -16 6 -51 15 -63 35 -47 13 11 15 10 9
-5 -7 -20 -3 -21 23 -7 20 11 28 4 35 -30 5 -24 -13 -37 -21 -16 -3 9 -13 16
-20 16 -22 0 9 -54 57 -101 21 -21 39 -43 39 -48 0 -5 9 -13 20 -16 11 -3 20
-12 20 -20 0 -8 9 -17 20 -20 25 -8 27 -52 3 -59 -10 -3 -45 -9 -78 -15 -33
-6 -101 -17 -151 -26 -49 -8 -157 -17 -238 -18 -130 -3 -146 -2 -141 12 23 58
36 215 36 401 -1 69 2 148 5 177 5 45 9 52 33 56 27 4 166 43 286 79 39 12 74
28 78 35 4 7 19 13 31 13 13 0 26 7 30 15 3 8 13 15 23 15 18 1 53 22 53 33 0
6 -36 -4 -75 -19 -17 -7 -18 -5 -8 7 7 9 31 22 53 29 38 13 47 37 9 27 -11 -3
-17 -1 -13 4 3 5 -4 9 -16 9 -11 0 -23 7 -27 16 -3 9 -13 14 -24 11 -11 -3
-19 -1 -19 4 0 5 -16 9 -36 9 -21 0 -33 4 -29 10 3 5 -1 10 -9 10 -8 0 -18 -5
-21 -10 -5 -8 -11 -7 -20 0 -9 8 -20 8 -32 2 -10 -6 -29 -10 -43 -10 -24 0
-115 -13 -187 -28 l-33 -6 0 46 c0 48 -1 47 55 51 60 3 125 31 152 65 19 23
17 26 -37 49 -28 12 -48 25 -46 30 10 16 -38 42 -92 49 -56 7 -57 7 -60 42 -5
43 15 203 30 246 8 24 8 39 -1 61 -16 40 -75 84 -119 90 -77 9 -167 -49 -144
-93 15 -29 -25 -235 -44 -227 -8 3 -14 0 -14 -6 0 -6 -4 -11 -10 -11 -5 0 -10
6 -10 14 0 7 -11 16 -24 18 -20 4 -35 -7 -86 -69 -34 -40 -83 -90 -108 -111
-57 -45 -112 -102 -112 -114 0 -5 -7 -11 -16 -15 -23 -9 -106 -93 -92 -93 6 0
26 11 45 26 18 14 33 23 33 20 0 -10 -59 -66 -70 -66 -5 0 -10 -4 -10 -10 0
-14 23 -12 39 3 11 10 12 9 6 -2 -6 -10 -1 -12 24 -6 21 4 31 3 31 -5 0 -10 3
-10 15 0 8 7 28 10 44 8 17 -2 28 -1 25 3 -2 5 6 13 18 20 21 11 22 11 9 -4
-15 -19 -10 -21 17 -8 49 24 90 29 188 24 l104 -6 0 -38 c0 -21 -4 -40 -8 -43
-5 -3 -61 -1 -124 4 -96 8 -124 7 -165 -6 -26 -8 -64 -18 -83 -20 -19 -3 -47
-14 -62 -25 -15 -10 -36 -19 -47 -19 -21 0 -37 -28 -22 -43 5 -5 7 -16 4 -23
-3 -9 2 -14 15 -14 11 0 25 -7 32 -15 7 -8 20 -15 29 -15 9 0 21 -4 26 -8 28
-25 268 -72 364 -72 l39 0 -5 -173 c-4 -149 -2 -184 16 -266 11 -51 26 -100
32 -107 9 -11 8 -14 -2 -14 -11 0 -11 -2 1 -10 19 -12 10 -12 -70 0 -153 25
-334 106 -477 213 -43 33 -102 113 -116 157 -9 29 -30 149 -47 265 -6 44 -18
121 -26 170 -18 113 -19 124 -28 210 -10 97 -14 535 -6 535 4 0 14 -7 21 -17
23 -27 91 -53 144 -53 55 0 163 15 210 30 17 5 55 17 85 26 50 15 260 93 268
100 2 1 -1 12 -8 23 -9 17 -8 25 5 37 13 14 15 14 15 -4 0 -14 8 -21 29 -24
l30 -4 -17 28 c-13 22 -14 30 -4 40 9 9 12 8 12 -6 0 -15 3 -16 15 -6 8 7 13
16 10 20 -3 4 3 14 13 21 15 13 16 12 3 -3 -12 -16 -11 -18 2 -18 9 0 19 5 22
10 12 20 26 10 14 -11 -10 -19 -6 -26 31 -60 23 -22 49 -39 58 -39 8 0 35 11
59 25 33 20 43 32 43 51 0 14 4 33 9 42 12 22 32 238 32 343 0 74 -22 240 -49
367 -11 51 -42 87 -88 102 -26 9 -46 8 -94 -6 -33 -9 -63 -21 -66 -25 -3 -5
-16 -9 -29 -9 -24 0 -91 -24 -170 -60 -22 -10 -107 -39 -190 -64 -165 -52
-376 -131 -415 -156 -14 -9 -55 -36 -92 -60 -37 -24 -71 -53 -76 -65 -25 -55
-62 -159 -77 -214 -13 -51 -15 -110 -14 -317 2 -235 1 -256 -16 -272 -17 -16
-18 -16 -12 1 4 10 1 17 -5 17 -9 0 -9 3 0 12 20 20 13 32 -7 14 -19 -17 -19
-17 -14 3 7 27 -19 51 -56 51 -21 0 -32 -6 -36 -20 -3 -11 -13 -20 -21 -20 -8
0 -14 -7 -14 -16 0 -10 -6 -14 -14 -11 -8 3 -17 -1 -20 -9 -3 -8 -12 -14 -21
-14 -8 0 -15 -4 -15 -10 0 -5 5 -10 11 -10 5 0 7 -5 4 -11 -4 -6 -14 -8 -22
-5 -18 7 -47 -20 -37 -35 4 -7 3 -9 -3 -6 -5 3 -21 0 -36 -8 -25 -13 -26 -12
-31 23 -24 168 -28 283 -22 651 3 217 7 395 9 397 3 3 224 71 289 89 25 7 52
16 59 21 7 4 31 11 53 16 23 5 47 10 54 11 8 2 17 8 20 13 8 11 93 40 144 49
20 4 44 16 54 26 9 10 25 19 35 19 9 0 29 14 44 31 26 32 26 32 19 5 -8 -32
13 -36 22 -3 3 12 22 35 42 52 33 28 34 28 21 5 -8 -14 -16 -27 -20 -30 -15
-14 -69 -102 -54 -90 14 12 18 12 25 0 7 -11 11 -8 21 13 7 15 18 27 24 27 19
0 38 27 25 35 -5 3 -10 1 -10 -4 0 -6 -4 -11 -10 -11 -5 0 -7 7 -4 15 4 9 13
13 24 10 21 -7 75 20 75 38 0 7 22 32 48 56 26 24 47 40 47 36 0 -5 8 -1 18 7
12 11 48 17 117 21 98 6 243 36 359 77 71 24 222 54 241 46 10 -3 12 -15 8
-40 -3 -20 -1 -55 5 -78 6 -24 13 -108 16 -188 4 -80 9 -192 13 -250 3 -58 6
-112 5 -120 0 -8 6 -78 14 -155 23 -235 29 -337 24 -405 l-5 -65 -22 24 c-26
28 -44 20 -25 -9 7 -11 8 -20 3 -20 -6 0 -13 5 -16 10 -3 6 -11 10 -16 10 -6
0 -7 -4 -4 -10 9 -14 -8 -13 -23 2 -20 20 -26 -1 -7 -22 10 -11 15 -23 12 -26
-4 -4 -9 1 -13 10 -15 40 -64 -5 -64 -59 0 -29 5 -37 25 -45 14 -5 25 -16 25
-24 0 -7 11 -21 25 -30 14 -9 23 -21 20 -26 -4 -6 6 -15 21 -20 15 -6 34 -20
41 -30 17 -23 35 -27 27 -5 -9 22 4 18 29 -8 24 -26 75 -40 96 -27 8 4 11 13
7 19 -4 6 -2 9 7 6 7 -3 29 10 49 29 45 44 49 66 54 326 3 168 -2 288 -21 440
-14 120 -25 257 -30 405 -15 374 -31 474 -93 573 -31 48 -183 65 -312 34 -25
-6 -79 -18 -120 -26 -41 -8 -111 -26 -155 -39 -44 -13 -92 -27 -108 -31 l-27
-7 14 35 c8 19 17 79 21 134 6 80 4 109 -9 150 -9 28 -19 63 -22 78 -3 16 -12
37 -21 46 -20 22 -53 24 -53 3z m-340 -795 c0 -5 -7 -10 -16 -10 -8 0 -12 5
-9 10 3 6 10 10 16 10 5 0 9 -4 9 -10z m97 -22 c-3 -8 -6 -5 -6 6 -1 11 2 17
5 13 3 -3 4 -12 1 -19z m546 -415 c3 -32 2 -101 -1 -153 -4 -52 -7 -136 -7
-187 0 -74 -2 -89 -13 -80 -11 8 -13 5 -10 -18 2 -17 -2 -29 -10 -31 -7 -1 -8
0 -2 3 14 7 13 19 -5 36 -13 14 -19 13 -56 -5 -41 -20 -57 -19 -44 2 4 6 14 9
22 6 8 -3 11 -1 8 4 -4 6 8 15 25 21 17 6 29 14 26 16 -3 3 -23 -2 -46 -11
-47 -19 -53 -20 -45 -6 9 14 -8 13 -23 -2 -8 -8 -12 -8 -12 -1 0 7 -48 -5
-117 -27 -65 -21 -152 -48 -193 -60 -41 -12 -96 -28 -122 -36 -27 -8 -81 -13
-127 -12 -53 1 -86 -3 -96 -12 -14 -12 -15 -2 -10 102 4 85 1 128 -10 164 -8
26 -13 49 -12 50 7 6 263 93 577 195 69 22 139 47 155 55 45 21 108 43 126 43
13 1 18 -12 22 -56z m-170 -460 c-7 -2 -19 -2 -25 0 -7 3 -2 5 12 5 14 0 19
-2 13 -5z m534 -205 c-3 -8 -6 -5 -6 6 -1 11 2 17 5 13 3 -3 4 -12 1 -19z
m-1512 -288 c-3 -5 -12 -10 -18 -10 -7 0 -6 4 3 10 19 12 23 12 15 0z m-95
-94 c0 -3 -4 -8 -10 -11 -5 -3 -10 -1 -10 4 0 6 5 11 10 11 6 0 10 -2 10 -4z
m1470 -56 c0 -5 -5 -10 -11 -10 -5 0 -7 5 -4 10 3 6 8 10 11 10 2 0 4 -4 4
-10z m-37 -6 c-7 -3 -9 -12 -6 -20 3 -8 0 -14 -6 -14 -12 0 -15 23 -4 33 3 4
11 7 17 6 7 0 6 -2 -1 -5z m-1963 -194 c0 -5 -5 -10 -11 -10 -5 0 -7 5 -4 10
3 6 8 10 11 10 2 0 4 -4 4 -10z m807 -382 c-3 -8 -6 -5 -6 6 -1 11 2 17 5 13
3 -3 4 -12 1 -19z m23 -108 c-1 -3 -7 4 -15 14 -8 11 -15 34 -14 50 0 28 2 27
15 -14 7 -25 14 -47 14 -50z m1533 -56 c-1 -6 16 -32 38 -58 53 -65 49 -73 -7
-11 -59 66 -72 88 -47 83 10 -2 17 -9 16 -14z m86 -12 c5 -10 6 -24 1 -31 -6
-11 -10 -9 -19 7 -6 11 -11 25 -11 31 0 17 18 13 29 -7z m-114 -3 c11 -17 -1
-21 -15 -4 -8 9 -8 15 -2 15 6 0 14 -5 17 -11z m-1507 -24 c-3 -3 -9 2 -12 12
-6 14 -5 15 5 6 7 -7 10 -15 7 -18z m11 -45 c11 -24 11 -24 -3 -6 -9 11 -16
24 -16 30 0 12 5 7 19 -24z m1664 13 c-7 -2 -19 -2 -25 0 -7 3 -2 5 12 5 14 0
19 -2 13 -5z m-1603 -91 c0 -3 -7 3 -15 14 -8 10 -14 26 -15 34 0 8 7 2 15
-14 8 -15 15 -31 15 -34z m1497 31 c-3 -3 -11 -2 -17 2 -9 6 -9 10 1 16 14 8
27 -7 16 -18z m-2476 -53 c10 -30 15 -58 13 -62 -11 -18 -19 -6 -22 34 -2 24
-9 46 -17 51 -18 9 -20 40 -3 35 6 -2 19 -28 29 -58z m2539 -5 c20 -25 6 -31
-17 -7 -14 14 -18 22 -9 22 8 0 19 -7 26 -15z m-2458 -159 c-3 -5 -9 -1 -13
10 -12 31 -10 39 5 19 8 -11 12 -24 8 -29z m1849 -21 c7 17 8 16 8 -7 1 -21
-4 -28 -17 -28 -13 0 -18 6 -16 23 3 32 6 34 12 12 l5 -20 8 20z m-91 -25 c0
-5 -2 -10 -4 -10 -3 0 -8 5 -11 10 -3 6 -1 10 4 10 6 0 11 -4 11 -10z"/>
<path d="M455 680 c-3 -5 -1 -10 4 -10 6 0 11 5 11 10 0 6 -2 10 -4 10 -3 0
-8 -4 -11 -10z"/>
<path d="M421 634 c0 -11 3 -14 6 -6 3 7 2 16 -1 19 -3 4 -6 -2 -5 -13z"/>
<path d="M420 600 c0 -5 5 -10 10 -10 6 0 10 5 10 10 0 6 -4 10 -10 10 -5 0
-10 -4 -10 -10z"/>
<path d="M2950 490 c0 -5 5 -10 11 -10 5 0 7 5 4 10 -3 6 -8 10 -11 10 -2 0
-4 -4 -4 -10z"/>
</g>
</svg>
